<svg
  xmlns="http://www.w3.org/2000/svg"
  xmlns:xlink="http://www.w3.org/1999/xlink"
  width="700"
  zoomAndPan="magnify"
  viewBox="0 0 525 112.499997"
  height="150"
  preserveAspectRatio="xMidYMid meet"
  version="1.0"
><defs><g /><clipPath id="cd86870108"><path
        d="M 133.265625 0 L 221.375 0 L 221.375 100 L 133.265625 100 Z M 133.265625 0 "
        clip-rule="nonzero"
      /></clipPath><clipPath id="d2641b7fff"><path
        d="M 133.265625 0 L 209 0 L 209 82 L 133.265625 82 Z M 133.265625 0 "
        clip-rule="nonzero"
      /></clipPath></defs><g clip-path="url(#cd86870108)"><path
      fill="#a9b9cb"
      d="M 221.371094 29.605469 C 221.367188 27.9375 221.015625 26.46875 220.292969 25.203125 C 219.585938 23.960938 218.527344 22.921875 217.109375 22.097656 C 205.378906 15.332031 193.636719 8.585938 181.910156 1.816406 C 178.75 -0.0117188 175.683594 0.0546875 172.542969 1.90625 C 167.878906 4.664062 144.5 18.058594 137.535156 22.09375 C 134.667969 23.753906 133.273438 26.296875 133.269531 29.601562 C 133.265625 43.207031 133.269531 56.8125 133.265625 70.421875 C 133.269531 72.046875 133.609375 73.492188 134.296875 74.738281 C 135.003906 76.015625 136.078125 77.085938 137.53125 77.925781 C 144.5 81.964844 167.878906 95.359375 172.546875 98.113281 C 175.683594 99.964844 178.75 100.03125 181.914062 98.207031 C 193.636719 91.433594 205.378906 84.6875 217.113281 77.921875 C 218.566406 77.082031 219.636719 76.011719 220.347656 74.734375 C 221.03125 73.488281 221.375 72.042969 221.375 70.414062 C 221.375 70.414062 221.375 43.210938 221.375 29.605469 "
      fill-opacity="1"
      fill-rule="nonzero"
    /></g><g clip-path="url(#d2641b7fff)"><path
      fill="#ff914d"
      d="M 181.828125 1.902344 C 178.671875 0.0820312 175.613281 0.148438 172.480469 1.996094 C 167.820312 4.742188 144.484375 18.105469 137.527344 22.128906 C 134.664062 23.785156 133.273438 26.324219 133.269531 29.617188 C 133.265625 43.191406 133.269531 56.757812 133.265625 70.332031 C 133.269531 71.953125 133.609375 73.390625 134.296875 74.632812 C 135 75.910156 136.074219 76.980469 137.527344 77.820312 C 139.117188 78.742188 141.574219 80.15625 144.464844 81.816406 L 208.855469 17.460938 C 199.847656 12.28125 190.835938 7.097656 181.832031 1.902344 "
      fill-opacity="1"
      fill-rule="nonzero"
    /></g><path
    fill="#ffffff"
    d="M 186.429688 43.808594 L 200.140625 43.90625 C 200.140625 38.195312 194.355469 24.214844 177.777344 24.214844 C 167.214844 24.214844 153.011719 30.925781 153.011719 50.21875 C 153.011719 69.515625 166.933594 75.808594 177.777344 75.808594 C 195.335938 75.808594 199.53125 63.664062 199.53125 56.804688 L 186.449219 56.058594 C 186.449219 56.058594 186.800781 63.992188 177.707031 63.992188 C 169.3125 63.992188 167.910156 53.714844 167.910156 50.21875 C 167.910156 44.90625 169.800781 36.378906 177.707031 36.378906 C 185.613281 36.378906 186.429688 43.808594 186.429688 43.808594 "
    fill-opacity="1"
    fill-rule="nonzero"
  /><g fill="#ff914d" fill-opacity="1"><g
      transform="translate(204.047996, 72.982692)"
    ><g><path
          d="M 16.671875 0.296875 C 13.878906 0.296875 11.3125 -0.359375 8.96875 -1.671875 C 6.625 -2.984375 4.769531 -4.800781 3.40625 -7.125 C 2.039062 -9.445312 1.359375 -12.078125 1.359375 -15.015625 C 1.359375 -17.953125 2.039062 -20.582031 3.40625 -22.90625 C 4.769531 -25.226562 6.625 -27.035156 8.96875 -28.328125 C 11.3125 -29.628906 13.878906 -30.28125 16.671875 -30.28125 C 19.484375 -30.28125 22.050781 -29.628906 24.375 -28.328125 C 26.707031 -27.035156 28.550781 -25.226562 29.90625 -22.90625 C 31.257812 -20.582031 31.9375 -17.953125 31.9375 -15.015625 C 31.9375 -12.078125 31.257812 -9.445312 29.90625 -7.125 C 28.550781 -4.800781 26.703125 -2.984375 24.359375 -1.671875 C 22.023438 -0.359375 19.460938 0.296875 16.671875 0.296875 Z M 16.671875 -7.40625 C 18.785156 -7.40625 20.453125 -8.09375 21.671875 -9.46875 C 22.898438 -10.851562 23.515625 -12.703125 23.515625 -15.015625 C 23.515625 -17.378906 22.898438 -19.242188 21.671875 -20.609375 C 20.453125 -21.984375 18.785156 -22.671875 16.671875 -22.671875 C 14.523438 -22.671875 12.84375 -21.984375 11.625 -20.609375 C 10.414062 -19.242188 9.8125 -17.378906 9.8125 -15.015625 C 9.8125 -12.671875 10.414062 -10.816406 11.625 -9.453125 C 12.84375 -8.085938 14.523438 -7.40625 16.671875 -7.40625 Z M 16.671875 -7.40625 "
        /></g></g></g><g fill="#ff914d" fill-opacity="1"><g
      transform="translate(237.338765, 72.982692)"
    ><g><path
          d="M 10.484375 -29.8125 L 10.484375 -12.515625 C 10.484375 -10.910156 10.859375 -9.671875 11.609375 -8.796875 C 12.359375 -7.921875 13.492188 -7.484375 15.015625 -7.484375 C 16.535156 -7.484375 17.679688 -7.925781 18.453125 -8.8125 C 19.234375 -9.707031 19.625 -10.941406 19.625 -12.515625 L 19.625 -29.8125 L 27.921875 -29.8125 L 27.921875 -12.515625 C 27.921875 -9.785156 27.34375 -7.453125 26.1875 -5.515625 C 25.03125 -3.585938 23.457031 -2.132812 21.46875 -1.15625 C 19.476562 -0.1875 17.269531 0.296875 14.84375 0.296875 C 12.414062 0.296875 10.25 -0.1875 8.34375 -1.15625 C 6.445312 -2.132812 4.953125 -3.582031 3.859375 -5.5 C 2.773438 -7.414062 2.234375 -9.753906 2.234375 -12.515625 L 2.234375 -29.8125 Z M 10.484375 -29.8125 "
        /></g></g></g><g fill="#ff914d" fill-opacity="1"><g
      transform="translate(267.456971, 72.982692)"
    ><g><path
          d="M 29.984375 0 L 21.703125 0 L 10.65625 -16.671875 L 10.65625 0 L 2.375 0 L 2.375 -29.8125 L 10.65625 -29.8125 L 21.703125 -12.9375 L 21.703125 -29.8125 L 29.984375 -29.8125 Z M 29.984375 0 "
        /></g></g></g><g fill="#ff914d" fill-opacity="1"><g
      transform="translate(299.817122, 72.982692)"
    ><g><path
          d="M 24.828125 -29.8125 L 24.828125 -23.21875 L 16.875 -23.21875 L 16.875 0 L 8.59375 0 L 8.59375 -23.21875 L 0.71875 -23.21875 L 0.71875 -29.8125 Z M 24.828125 -29.8125 "
        /></g></g></g><g fill="#ff914d" fill-opacity="1"><g
      transform="translate(325.366842, 72.982692)"
    ><g><path
          d="M 17.46875 0 L 11.546875 -11 L 10.65625 -11 L 10.65625 0 L 2.375 0 L 2.375 -29.8125 L 15.4375 -29.8125 C 17.832031 -29.8125 19.863281 -29.394531 21.53125 -28.5625 C 23.195312 -27.738281 24.453125 -26.597656 25.296875 -25.140625 C 26.140625 -23.691406 26.5625 -22.066406 26.5625 -20.265625 C 26.5625 -18.234375 26.003906 -16.445312 24.890625 -14.90625 C 23.773438 -13.375 22.144531 -12.28125 20 -11.625 L 26.734375 0 Z M 10.65625 -16.671875 L 14.765625 -16.671875 C 15.890625 -16.671875 16.734375 -16.9375 17.296875 -17.46875 C 17.859375 -18 18.140625 -18.773438 18.140625 -19.796875 C 18.140625 -20.753906 17.847656 -21.503906 17.265625 -22.046875 C 16.691406 -22.597656 15.859375 -22.875 14.765625 -22.875 L 10.65625 -22.875 Z M 10.65625 -16.671875 "
        /></g></g></g><g fill="#ff914d" fill-opacity="1"><g
      transform="translate(353.327696, 72.982692)"
    ><g><path
          d="M 10.65625 -29.8125 L 10.65625 0 L 2.375 0 L 2.375 -29.8125 Z M 10.65625 -29.8125 "
        /></g></g></g><g fill="#ff914d" fill-opacity="1"><g
      transform="translate(366.356356, 72.982692)"
    ><g><path
          d="M 10.65625 -23.171875 L 10.65625 -18.3125 L 20.171875 -18.3125 L 20.171875 -12.015625 L 10.65625 -12.015625 L 10.65625 -6.640625 L 21.4375 -6.640625 L 21.4375 0 L 2.375 0 L 2.375 -29.8125 L 21.4375 -29.8125 L 21.4375 -23.171875 Z M 10.65625 -23.171875 "
        /></g></g></g><g fill="#ff914d" fill-opacity="1"><g
      transform="translate(389.537227, 72.982692)"
    ><g><path
          d="M 13.625 0.296875 C 10.15625 0.296875 7.304688 -0.523438 5.078125 -2.171875 C 2.847656 -3.828125 1.648438 -6.191406 1.484375 -9.265625 L 10.328125 -9.265625 C 10.410156 -8.222656 10.71875 -7.460938 11.25 -6.984375 C 11.78125 -6.503906 12.472656 -6.265625 13.328125 -6.265625 C 14.085938 -6.265625 14.710938 -6.453125 15.203125 -6.828125 C 15.703125 -7.210938 15.953125 -7.742188 15.953125 -8.421875 C 15.953125 -9.296875 15.539062 -9.972656 14.71875 -10.453125 C 13.90625 -10.929688 12.582031 -11.460938 10.75 -12.046875 C 8.800781 -12.703125 7.226562 -13.332031 6.03125 -13.9375 C 4.832031 -14.539062 3.785156 -15.425781 2.890625 -16.59375 C 2.003906 -17.769531 1.5625 -19.300781 1.5625 -21.1875 C 1.5625 -23.101562 2.039062 -24.742188 3 -26.109375 C 3.957031 -27.484375 5.28125 -28.519531 6.96875 -29.21875 C 8.664062 -29.925781 10.585938 -30.28125 12.734375 -30.28125 C 16.203125 -30.28125 18.972656 -29.46875 21.046875 -27.84375 C 23.117188 -26.226562 24.222656 -23.953125 24.359375 -21.015625 L 15.359375 -21.015625 C 15.328125 -21.921875 15.050781 -22.597656 14.53125 -23.046875 C 14.007812 -23.503906 13.335938 -23.734375 12.515625 -23.734375 C 11.898438 -23.734375 11.394531 -23.546875 11 -23.171875 C 10.601562 -22.804688 10.40625 -22.285156 10.40625 -21.609375 C 10.40625 -21.046875 10.625 -20.5625 11.0625 -20.15625 C 11.5 -19.75 12.039062 -19.394531 12.6875 -19.09375 C 13.332031 -18.800781 14.289062 -18.425781 15.5625 -17.96875 C 17.457031 -17.320312 19.015625 -16.679688 20.234375 -16.046875 C 21.460938 -15.410156 22.519531 -14.519531 23.40625 -13.375 C 24.300781 -12.238281 24.75 -10.796875 24.75 -9.046875 C 24.75 -7.273438 24.300781 -5.679688 23.40625 -4.265625 C 22.519531 -2.859375 21.238281 -1.742188 19.5625 -0.921875 C 17.882812 -0.109375 15.90625 0.296875 13.625 0.296875 Z M 13.625 0.296875 "
        /></g></g></g><g fill="#000000" fill-opacity="1"><g
      transform="translate(236.790484, 102.394314)"
    ><g><path
          d="M 19.71875 -26.671875 L 19.71875 -21.46875 L 8.84375 -21.46875 L 8.84375 -15.84375 L 16.984375 -15.84375 L 16.984375 -10.78125 L 8.84375 -10.78125 L 8.84375 0 L 2.359375 0 L 2.359375 -26.671875 Z M 19.71875 -26.671875 "
        /></g></g></g><g fill="#000000" fill-opacity="1"><g
      transform="translate(257.566175, 102.394314)"
    ><g><path
          d="M 8.84375 -26.671875 L 8.84375 0 L 2.359375 0 L 2.359375 -26.671875 Z M 8.84375 -26.671875 "
        /></g></g></g><g fill="#000000" fill-opacity="1"><g
      transform="translate(268.770611, 102.394314)"
    ><g><path
          d="M 26.203125 0 L 19.71875 0 L 8.84375 -16.453125 L 8.84375 0 L 2.359375 0 L 2.359375 -26.671875 L 8.84375 -26.671875 L 19.71875 -10.140625 L 19.71875 -26.671875 L 26.203125 -26.671875 Z M 26.203125 0 "
        /></g></g></g><g fill="#000000" fill-opacity="1"><g
      transform="translate(297.332433, 102.394314)"
    ><g><path
          d="M 12.34375 -26.671875 C 15.15625 -26.671875 17.609375 -26.113281 19.703125 -25 C 21.804688 -23.882812 23.4375 -22.316406 24.59375 -20.296875 C 25.75 -18.285156 26.328125 -15.960938 26.328125 -13.328125 C 26.328125 -10.722656 25.75 -8.40625 24.59375 -6.375 C 23.4375 -4.351562 21.800781 -2.785156 19.6875 -1.671875 C 17.570312 -0.554688 15.125 0 12.34375 0 L 2.359375 0 L 2.359375 -26.671875 Z M 11.921875 -5.625 C 14.378906 -5.625 16.289062 -6.289062 17.65625 -7.625 C 19.03125 -8.96875 19.71875 -10.867188 19.71875 -13.328125 C 19.71875 -15.785156 19.03125 -17.695312 17.65625 -19.0625 C 16.289062 -20.4375 14.378906 -21.125 11.921875 -21.125 L 8.84375 -21.125 L 8.84375 -5.625 Z M 11.921875 -5.625 "
        /></g></g></g><g fill="#000000" fill-opacity="1"><g
      transform="translate(324.944725, 102.394314)"
    ><g><path
          d="M 8.84375 -21.46875 L 8.84375 -16.0625 L 17.546875 -16.0625 L 17.546875 -11.046875 L 8.84375 -11.046875 L 8.84375 -5.203125 L 18.6875 -5.203125 L 18.6875 0 L 2.359375 0 L 2.359375 -26.671875 L 18.6875 -26.671875 L 18.6875 -21.46875 Z M 8.84375 -21.46875 "
        /></g></g></g><g fill="#000000" fill-opacity="1"><g
      transform="translate(345.492523, 102.394314)"
    ><g><path
          d="M 15.953125 0 L 10.40625 -10.0625 L 8.84375 -10.0625 L 8.84375 0 L 2.359375 0 L 2.359375 -26.671875 L 13.25 -26.671875 C 15.351562 -26.671875 17.144531 -26.300781 18.625 -25.5625 C 20.113281 -24.832031 21.222656 -23.828125 21.953125 -22.546875 C 22.691406 -21.265625 23.0625 -19.835938 23.0625 -18.265625 C 23.0625 -16.492188 22.5625 -14.910156 21.5625 -13.515625 C 20.5625 -12.128906 19.082031 -11.144531 17.125 -10.5625 L 23.28125 0 Z M 8.84375 -14.65625 L 12.875 -14.65625 C 14.0625 -14.65625 14.953125 -14.945312 15.546875 -15.53125 C 16.148438 -16.113281 16.453125 -16.9375 16.453125 -18 C 16.453125 -19.019531 16.148438 -19.816406 15.546875 -20.390625 C 14.953125 -20.972656 14.0625 -21.265625 12.875 -21.265625 L 8.84375 -21.265625 Z M 8.84375 -14.65625 "
        /></g></g></g></svg>
